<?xml version="1.0" encoding="UTF-8" standalone="no"?>
<!DOCTYPE svg PUBLIC "-//W3C//DTD SVG 1.1//EN" "http://www.w3.org/Graphics/SVG/1.1/DTD/svg11.dtd">
<svg width="100%" height="100%" viewBox="0 0 216 314" version="1.1" xmlns="http://www.w3.org/2000/svg" xmlns:xlink="http://www.w3.org/1999/xlink" xml:space="preserve" xmlns:serif="http://www.serif.com/" style="fill-rule:evenodd;clip-rule:evenodd;stroke-linecap:round;stroke-linejoin:round;stroke-miterlimit:1.5;">
    <g transform="matrix(1,0,0,1,-45.918,-30.2233)">
        <g transform="matrix(1,0,0,1,3.8151,67.832)">
            <g transform="matrix(1,0,0,1,42.1029,-37.6087)">
                <path d="M152.297,60.055C132.457,40.224 113.527,21.32 107.894,0C102.26,21.32 83.328,40.224 63.491,60.055C33.736,89.791 0,123.493 0,174.039C0,233.23 48.706,281.937 107.897,281.937C167.088,281.937 215.794,233.23 215.794,174.039C215.794,123.496 182.061,89.791 152.297,60.055" style="fill:url(#_Radial1);fill-rule:nonzero;"/>
            </g>
        </g>
        <g transform="matrix(1,0,0,1,3.8151,67.832)">
            <g transform="matrix(1,0,0,1,-3.36972,32.2163)">
                <g transform="matrix(1,0,0,1,0.226841,0)">
                    <path d="M153.773,88.496L219.198,88.496L194.747,129.49L154.136,129.49L153.773,88.496Z" style="fill:rgb(170,138,95);"/>
                </g>
                <g transform="matrix(-1,0,0,1,307.773,0)">
                    <path d="M153.773,88.496L219.198,88.496L194.747,129.49L154.136,129.49L153.773,88.496Z" style="fill:rgb(170,138,95);"/>
                </g>
            </g>
        </g>
        <g transform="matrix(1,0,0,1,3.8151,67.832)">
            <g transform="matrix(1,0,0,1.27575,-3.36972,5.85177)">
                <rect x="98.417" y="95.61" width="111.038" height="7.575" style="fill:rgb(155,115,61);"/>
            </g>
        </g>
        <g transform="matrix(1,0,0,1,3.8151,67.832)">
            <g transform="matrix(0.95373,0,0,1,4.18143,32.2163)">
                <rect x="125.768" y="93.217" width="55.572" height="136.169" style="fill:rgb(200,179,152);"/>
                <path d="M185.009,93.217L185.009,229.386C185.009,231.319 183.366,232.886 181.34,232.886L125.768,232.886C123.741,232.886 122.098,231.319 122.098,229.386L122.098,93.217C122.098,91.284 123.741,89.717 125.768,89.717L181.34,89.717C183.366,89.717 185.009,91.284 185.009,93.217ZM181.34,93.217L125.768,93.217L125.768,229.386L181.34,229.386L181.34,93.217Z"/>
            </g>
        </g>
        <g transform="matrix(1,0,0,1,3.8151,67.832)">
            <g transform="matrix(0.95373,0,0,0.10785,4.18143,115.379)">
                <rect x="125.768" y="93.217" width="55.572" height="136.169" style="fill:rgb(191,165,128);"/>
            </g>
        </g>
        <g transform="matrix(1,0,0,1,3.8151,67.832)">
            <g transform="matrix(1,0,0,1,-3.36972,32.2163)">
                <g transform="matrix(1.05641,0,0,1.03134,-8.51889,-7.08851)">
                    <rect x="164.505" y="98.101" width="6.898" height="128.102" style="fill:rgb(170,138,95);"/>
                </g>
                <g transform="matrix(1.05641,0,0,1.03134,-39.0722,-7.08851)">
                    <rect x="164.505" y="98.101" width="6.898" height="128.102" style="fill:rgb(170,138,95);"/>
                </g>
                <g transform="matrix(1.05641,0,0,1.03134,-23.7268,-7.08851)">
                    <rect x="164.505" y="98.101" width="6.898" height="128.102" style="fill:rgb(170,138,95);"/>
                </g>
            </g>
        </g>
        <g transform="matrix(1,0,0,1,3.8151,67.832)">
            <g transform="matrix(1,0,0,1,-3.36972,32.2163)">
                <g transform="matrix(1.05641,0,0,0.142196,-8.51889,80.1368)">
                    <rect x="164.505" y="98.101" width="6.898" height="128.102" style="fill:rgb(155,115,61);"/>
                </g>
                <g transform="matrix(1.05641,0,0,0.142196,-39.0722,80.1368)">
                    <rect x="164.505" y="98.101" width="6.898" height="128.102" style="fill:rgb(155,115,61);"/>
                </g>
                <g transform="matrix(1.05641,0,0,0.142196,-23.7268,80.1368)">
                    <rect x="164.505" y="98.101" width="6.898" height="128.102" style="fill:rgb(155,115,61);"/>
                </g>
            </g>
        </g>
        <g transform="matrix(1,0,0,1,3.8151,67.832)">
            <g transform="matrix(1,0,0,1,-3.36972,32.2163)">
                <path d="M106.962,223.184L201.041,223.184L207.486,229.629L207.486,239.843L100.518,239.843L100.518,229.629L106.962,223.184Z" style="fill:white;"/>
                <path d="M106.962,219.684L201.041,219.684C201.97,219.684 202.86,220.053 203.516,220.709L209.961,227.154C210.617,227.81 210.986,228.7 210.986,229.629L210.986,239.843C210.986,241.776 209.419,243.343 207.486,243.343L100.518,243.343C98.585,243.343 97.018,241.776 97.018,239.843L97.018,229.629C97.018,228.7 97.386,227.81 98.043,227.154L104.487,220.709C105.144,220.053 106.034,219.684 106.962,219.684ZM106.962,223.184L100.518,229.629L100.518,239.843L207.486,239.843L207.486,229.629L201.041,223.184L106.962,223.184Z"/>
            </g>
        </g>
        <g transform="matrix(1,0,0,1,3.8151,67.832)">
            <g transform="matrix(0.965071,0,0,0.740953,2.00764,94.3469)">
                <path d="M106.962,223.184L201.041,223.184L207.486,229.629L207.486,239.843L100.518,239.843L100.518,229.629L106.962,223.184Z" style="fill:rgb(170,138,95);"/>
            </g>
        </g>
        <g transform="matrix(1,0,0,1,3.8151,67.832)">
            <g transform="matrix(1,0,0,1,-6.09709,32.2163)">
                <g transform="matrix(1,0,0,1,-53.8398,-12.1419)">
                    <path d="M261.905,88.127L275.091,88.127" style="fill:none;stroke:black;stroke-width:10px;"/>
                </g>
                <g transform="matrix(1,0,0,1,-53.8398,-12.1419)">
                    <circle cx="255.012" cy="49.296" r="5.76" style="fill:rgb(93,93,93);stroke:black;stroke-width:5px;"/>
                </g>
                <g transform="matrix(1,0,0,1,-53.8398,-12.1419)">
                    <path d="M269.372,85.548L269.372,71.295C269.372,67.927 268.962,65.135 266.246,62.126C263.53,59.117 258.663,53.835 258.663,53.835" style="fill:none;stroke:black;stroke-width:5px;"/>
                </g>
            </g>
        </g>
        <g transform="matrix(1,0,0,1,3.8151,67.832)">
            <g transform="matrix(-1,0,0,1,307.358,32.2163)">
                <g transform="matrix(1,0,0,1,-53.8398,-12.1419)">
                    <path d="M261.905,88.127L275.091,88.127" style="fill:none;stroke:black;stroke-width:10px;"/>
                </g>
                <g transform="matrix(1,0,0,1,-53.8398,-12.1419)">
                    <circle cx="255.012" cy="49.296" r="5.76" style="fill:rgb(93,93,93);stroke:black;stroke-width:5px;"/>
                </g>
                <g transform="matrix(1,0,0,1,-53.8398,-12.1419)">
                    <path d="M269.372,85.548L269.372,71.295C269.372,67.927 268.962,65.135 266.246,62.126C263.53,59.117 258.663,53.835 258.663,53.835" style="fill:none;stroke:black;stroke-width:5px;"/>
                </g>
            </g>
        </g>
        <g transform="matrix(1,0,0,1,3.8151,67.832)">
            <g transform="matrix(1,0,0,1,-3.36972,32.2163)">
                <path d="M208.186,97.013L99.818,97.013L121.672,130.28L104.134,130.28L80.314,96.913L80.314,79.913L227.69,79.913L227.69,96.913L203.87,130.28L186.332,130.28L208.186,97.013Z" style="fill:rgb(191,164,127);"/>
                <path d="M201.699,100.513L106.305,100.513L124.597,128.359C125.304,129.434 125.363,130.81 124.752,131.942C124.141,133.075 122.958,133.78 121.672,133.78L104.134,133.78C103.003,133.78 101.942,133.234 101.286,132.314L77.465,98.947C77.042,98.353 76.814,97.642 76.814,96.913L76.814,79.913C76.814,77.98 78.381,76.413 80.314,76.413L227.69,76.413C229.623,76.413 231.19,77.98 231.19,79.913L231.19,96.913C231.19,97.642 230.962,98.353 230.538,98.947L206.718,132.314C206.061,133.234 205,133.78 203.87,133.78L186.332,133.78C185.045,133.78 183.862,133.075 183.252,131.942C182.641,130.81 182.7,129.434 183.407,128.359L201.699,100.513ZM208.186,97.013L186.332,130.28L203.87,130.28L227.69,96.913L227.69,79.913L80.314,79.913L80.314,96.913L104.134,130.28L121.672,130.28L99.818,97.013L208.186,97.013Z"/>
            </g>
        </g>
        <g transform="matrix(1,0,0,1,3.8151,67.832)">
            <g transform="matrix(1,0,0,2.83599,-3.36972,-115.074)">
                <rect x="80.696" y="80.224" width="146.455" height="4.597" style="fill:rgb(200,179,152);"/>
            </g>
        </g>
        <g transform="matrix(1,0,0,1,3.8151,67.832)">
            <g transform="matrix(1,0,0,0.638623,-3.36972,61.2074)">
                <rect x="80.696" y="80.224" width="146.455" height="4.597" style="fill:white;"/>
            </g>
        </g>
    </g>
    <defs>
        <radialGradient id="_Radial1" cx="0" cy="0" r="1" gradientUnits="userSpaceOnUse" gradientTransform="matrix(107.897,0,0,140.968,108.985,166.985)"><stop offset="0" style="stop-color:rgb(76,202,255);stop-opacity:1"/><stop offset="1" style="stop-color:rgb(0,156,222);stop-opacity:1"/></radialGradient>
    </defs>
</svg>
